<svg width="57" height="52" viewBox="0 0 57 52" fill="none" xmlns="http://www.w3.org/2000/svg">
<path d="M28.032 13.2185L27.6522 16.7184L30.988 15.5931C33.2594 14.8269 35.8708 14.3985 38.7349 14.3985C46.4234 14.3985 52.6357 19.581 53.8922 26.1736L40.9849 24.9647L37.3509 24.6244L38.6794 28.0239C39.4864 30.0887 39.9379 32.4627 39.9379 35.0705C39.9379 41.9597 34.4454 47.9073 26.9369 49.0243L28.2189 37.2086L28.5986 33.7087L25.2628 34.834C22.9914 35.6002 20.38 36.0286 17.5159 36.0286C9.82748 36.0286 3.61517 30.8461 2.35863 24.2535L15.266 25.4624L18.9 25.8027L17.5714 22.4032C16.7645 20.3384 16.3129 17.9644 16.3129 15.3566C16.3129 8.46736 21.8054 2.51981 29.314 1.40282L28.032 13.2185ZM22.4772 24.1053L24.6773 24.5763L22.4772 24.1053C22.2408 25.2092 22.364 26.3515 22.8224 27.3797C23.2797 28.4054 24.0417 29.255 24.9855 29.8409C25.9281 30.4261 27.0204 30.7298 28.1254 30.7298C29.6033 30.7298 31.051 30.1859 32.1428 29.1715C33.2402 28.152 33.891 26.7322 33.891 25.2136C33.891 24.084 33.5296 22.9952 32.8752 22.0852C32.2225 21.1776 31.3127 20.4939 30.2789 20.0961C29.2459 19.6985 28.1177 19.5966 27.0307 19.7975C25.9433 19.9985 24.9236 20.4979 24.108 21.2556C23.2908 22.0149 22.7132 23.003 22.4772 24.1053Z" stroke="black" stroke-width="4.5"/>
</svg>
