<svg width="57" height="53" viewBox="0 0 57 53" fill="none" xmlns="http://www.w3.org/2000/svg">
<path d="M41.3086 1.63313H14.9414C13.5433 1.63458 12.2029 2.15124 11.2143 3.06973C10.2256 3.98823 9.66954 5.23355 9.66797 6.5325V47.3606C9.66902 48.2266 10.0397 49.0568 10.6988 49.6691C11.3579 50.2815 12.2515 50.6259 13.1836 50.6269H43.0664C43.9985 50.6259 44.8921 50.2815 45.5512 49.6691C46.2103 49.0568 46.581 48.2266 46.582 47.3606V6.5325C46.5805 5.23355 46.0244 3.98823 45.0357 3.06973C44.0471 2.15124 42.7067 1.63458 41.3086 1.63313V1.63313ZM43.0664 47.3606H13.1836V24.4969H43.0664V47.3606ZM43.0664 21.2306H13.1836V6.5325C13.1841 6.09953 13.3695 5.68443 13.6991 5.37827C14.0286 5.07211 14.4754 4.89989 14.9414 4.89938H41.3086C41.7746 4.89989 42.2214 5.07211 42.5509 5.37827C42.8805 5.68443 43.0659 6.09953 43.0664 6.5325V21.2306Z" fill="black"/>
<path d="M15.8203 28.5797H19.3359V38.3784H15.8203V28.5797Z" fill="black"/>
<path d="M15.8203 10.6153H19.3359V17.1478H15.8203V10.6153Z" fill="black"/>
</svg>
