<svg width="48" height="44" viewBox="0 0 48 44" fill="none" xmlns="http://www.w3.org/2000/svg">
<path d="M23.8394 0.35495C24.461 0.35495 25.0571 0.584362 25.4966 0.992719C25.9362 1.40108 26.1831 1.95493 26.1831 2.53243V4.70991C26.1831 5.28742 25.9362 5.84127 25.4966 6.24962C25.0571 6.65798 24.461 6.88739 23.8394 6.88739C23.2178 6.88739 22.6216 6.65798 22.1821 6.24962C21.7425 5.84127 21.4956 5.28742 21.4956 4.70991V2.53243C21.4956 1.95493 21.7425 1.40108 22.1821 0.992719C22.6216 0.584362 23.2178 0.35495 23.8394 0.35495V0.35495ZM6.94795 6.43665C7.38747 6.02844 7.9835 5.79912 8.60498 5.79912C9.22646 5.79912 9.82249 6.02844 10.262 6.43665L12.6058 8.61414C13.0327 9.02481 13.2689 9.57485 13.2636 10.1458C13.2583 10.7167 13.0118 11.2628 12.5772 11.6666C12.1427 12.0703 11.5548 12.2993 10.9403 12.3043C10.3258 12.3092 9.73374 12.0897 9.2917 11.6931L6.94795 9.51561C6.50856 9.10727 6.26173 8.55352 6.26173 7.97613C6.26173 7.39874 6.50856 6.84499 6.94795 6.43665V6.43665ZM40.7308 6.43665C41.1701 6.84499 41.417 7.39874 41.417 7.97613C41.417 8.55352 41.1701 9.10727 40.7308 9.51561L38.387 11.6931C38.1708 11.9011 37.9122 12.0669 37.6262 12.1811C37.3403 12.2952 37.0327 12.3553 36.7215 12.3578C36.4103 12.3603 36.1017 12.3052 35.8137 12.1957C35.5256 12.0862 35.264 11.9245 35.0439 11.7201C34.8238 11.5156 34.6498 11.2725 34.532 11.0049C34.4141 10.7373 34.3548 10.4506 34.3575 10.1615C34.3602 9.87233 34.4249 9.5866 34.5477 9.32094C34.6705 9.05527 34.8491 8.815 35.0729 8.61414L37.4167 6.43665C37.8562 6.02844 38.4523 5.79912 39.0737 5.79912C39.6952 5.79912 40.2912 6.02844 40.7308 6.43665ZM23.8394 13.4198C21.353 13.4198 18.9684 14.3375 17.2102 15.9709C15.4521 17.6043 14.4644 19.8197 14.4644 22.1298C14.4644 24.4398 15.4521 26.6552 17.2102 28.2886C18.9684 29.922 21.353 30.8397 23.8394 30.8397C26.3258 30.8397 28.7103 29.922 30.4685 28.2886C32.2266 26.6552 33.2144 24.4398 33.2144 22.1298C33.2144 19.8197 32.2266 17.6043 30.4685 15.9709C28.7103 14.3375 26.3258 13.4198 23.8394 13.4198V13.4198ZM9.77686 22.1298C9.7772 19.8365 10.4273 17.5837 11.6617 15.5978C12.8962 13.6119 14.6716 11.9628 16.8094 10.8164C18.9472 9.66996 21.3722 9.06652 23.8406 9.06672C26.309 9.06692 28.7339 9.67076 30.8715 10.8175C33.0091 11.9643 34.7841 13.6137 36.0182 15.5998C37.2523 17.5859 37.9019 19.8388 37.9019 22.1321C37.9018 24.4254 37.252 26.6782 36.0177 28.6642C34.7835 30.6503 33.0083 32.2995 30.8706 33.4461V37.3721C30.8706 39.1046 30.1298 40.7662 28.8112 41.9913C27.4926 43.2163 25.7042 43.9046 23.8394 43.9046C21.9746 43.9046 20.1861 43.2163 18.8675 41.9913C17.5489 40.7662 16.8081 39.1046 16.8081 37.3721V33.4461C14.6697 32.2996 12.8941 30.6501 11.6597 28.6636C10.4254 26.677 9.77603 24.4235 9.77686 22.1298V22.1298ZM21.4956 35.0139V37.3721C21.4956 37.9496 21.7425 38.5035 22.1821 38.9118C22.6216 39.3202 23.2178 39.5496 23.8394 39.5496C24.461 39.5496 25.0571 39.3202 25.4966 38.9118C25.9362 38.5035 26.1831 37.9496 26.1831 37.3721V35.0139C24.6315 35.2562 23.0472 35.2562 21.4956 35.0139V35.0139ZM0.401855 22.1298C0.401855 21.5523 0.648785 20.9984 1.08832 20.59C1.52786 20.1817 2.124 19.9523 2.74561 19.9523H5.08936C5.71096 19.9523 6.3071 20.1817 6.74664 20.59C7.18617 20.9984 7.43311 21.5523 7.43311 22.1298C7.43311 22.7073 7.18617 23.2611 6.74664 23.6695C6.3071 24.0778 5.71096 24.3072 5.08936 24.3072H2.74561C2.124 24.3072 1.52786 24.0778 1.08832 23.6695C0.648785 23.2611 0.401855 22.7073 0.401855 22.1298V22.1298ZM40.2456 22.1298C40.2456 21.5523 40.4925 20.9984 40.9321 20.59C41.3716 20.1817 41.9678 19.9523 42.5894 19.9523H44.9331C45.5547 19.9523 46.1509 20.1817 46.5904 20.59C47.0299 20.9984 47.2769 21.5523 47.2769 22.1298C47.2769 22.7073 47.0299 23.2611 46.5904 23.6695C46.1509 24.0778 45.5547 24.3072 44.9331 24.3072H42.5894C41.9678 24.3072 41.3716 24.0778 40.9321 23.6695C40.4925 23.2611 40.2456 22.7073 40.2456 22.1298Z" fill="white"/>
</svg>
