<svg width="46" height="43" viewBox="0 0 46 43" fill="none" xmlns="http://www.w3.org/2000/svg">
<path d="M42.1344 7.67523L21.0406 0.550447C20.3326 0.309974 19.5725 0.231868 18.8251 0.322766C18.0776 0.413664 17.3648 0.67088 16.7472 1.07255C16.1296 1.47422 15.6256 2.00848 15.2779 2.62991C14.9302 3.25135 14.7491 3.94159 14.75 4.64197V17.9879C13.3317 17.2028 11.7134 16.7841 10.0625 16.775C4.89219 16.775 0.6875 20.6814 0.6875 25.485C0.6875 30.2886 4.89219 34.195 10.0625 34.195C15.2328 34.195 19.4375 30.2886 19.4375 25.485V4.64197L40.5312 11.7667V26.6957C39.1123 25.9122 37.4943 25.4943 35.8438 25.485C30.6734 25.485 26.4688 29.3914 26.4688 34.195C26.4688 38.9986 30.6734 42.905 35.8438 42.905C41.0141 42.905 45.2188 38.9986 45.2188 34.195V11.7667C45.2188 9.942 43.9789 8.29581 42.1344 7.67523ZM10.0625 29.84C7.47734 29.84 5.375 27.8868 5.375 25.485C5.375 23.0832 7.47734 21.13 10.0625 21.13C12.6477 21.13 14.75 23.0832 14.75 25.485C14.75 27.8868 12.6477 29.84 10.0625 29.84ZM35.8438 38.55C33.2586 38.55 31.1562 36.5968 31.1562 34.195C31.1562 31.7932 33.2586 29.84 35.8438 29.84C38.4289 29.84 40.5312 31.7932 40.5312 34.195C40.5312 36.5968 38.4289 38.55 35.8438 38.55Z" fill="black"/>
</svg>
