<svg width="48" height="43" viewBox="0 0 48 43" fill="none" xmlns="http://www.w3.org/2000/svg">
<path d="M43.4609 10.2484H30.4971L36.5396 4.63457C37.0349 4.17436 37.3132 3.5502 37.3132 2.89937C37.3132 2.24855 37.0349 1.62438 36.5396 1.16418C36.0442 0.703974 35.3724 0.445435 34.6719 0.445435C33.9714 0.445435 33.2995 0.703974 32.8042 1.16418L24.125 9.22773L15.4458 1.16418C14.9505 0.703974 14.2786 0.445435 13.5781 0.445435C12.8776 0.445435 12.2058 0.703974 11.7104 1.16418C11.2151 1.62438 10.9368 2.24855 10.9368 2.89937C10.9368 3.5502 11.2151 4.17436 11.7104 4.63457L17.7529 10.2484H4.78906C3.62534 10.2538 2.51093 10.6857 1.68804 11.4502C0.865155 12.2147 0.400307 13.2501 0.394531 14.3312V38.8281C0.400307 39.9093 0.865155 40.9447 1.68804 41.7092C2.51093 42.4737 3.62534 42.9056 4.78906 42.9109H43.4609C44.6247 42.9056 45.7391 42.4737 46.562 41.7092C47.3848 40.9447 47.8497 39.9093 47.8555 38.8281V14.3312C47.8497 13.2501 47.3848 12.2147 46.562 11.4502C45.7391 10.6857 44.6247 10.2538 43.4609 10.2484ZM42.582 38.0116H5.66797V15.1478H42.582V38.0116Z" fill="black"/>
</svg>
